<svg width="160" height="160" viewBox="0 0 160 160" fill="none" xmlns="http://www.w3.org/2000/svg">
<g clip-path="url(#clip0)">
<path d="M80 160C124.183 160 160 124.183 160 80C160 35.8172 124.183 0 80 0C35.8172 0 0 35.8172 0 80C0 124.183 35.8172 160 80 160Z" fill="#D0D8EB"/>
<path d="M87.9555 55.8152C94.2929 55.8152 99.4305 50.6777 99.4305 44.3402C99.4305 38.0028 94.2929 32.8652 87.9555 32.8652C81.618 32.8652 76.4805 38.0028 76.4805 44.3402C76.4805 50.6777 81.618 55.8152 87.9555 55.8152Z" fill="#3452A1"/>
<path d="M115.235 78.0403C115.235 78.0403 125.5 48.8403 87.955 40.1503C50.41 31.4653 46.805 62.2103 46.805 62.2103C46.805 62.2103 42.025 85.9803 29.54 103.395C29.54 103.395 39.86 96.6553 72.93 105.095C102.825 112.725 114.26 122.345 114.26 122.345C110.145 100.97 115.235 78.0403 115.235 78.0403Z" fill="#3452A1"/>
<path d="M103.99 46.5952C98.0299 71.5552 75.5799 90.1102 48.7949 90.1102C45.0249 90.1102 41.3399 89.7402 37.7749 89.0352C35.5199 93.8952 32.7899 98.8552 29.5449 103.385C29.5449 103.385 39.8649 96.6452 72.9349 105.085C102.83 112.715 114.265 122.335 114.265 122.335C110.145 100.96 115.235 78.0302 115.235 78.0302C115.235 78.0302 122.11 58.4602 103.99 46.5952Z" fill="#2B3892"/>
<path d="M114.383 123.782C115.827 117.541 97.9593 108.076 74.4743 102.643C50.9893 97.2099 30.7803 97.8654 29.3363 104.107C27.8923 110.349 45.76 119.814 69.245 125.247C92.73 130.68 112.939 130.024 114.383 123.782Z" fill="#7488C3"/>
<mask id="mask0" style="mask-type:alpha" maskUnits="userSpaceOnUse" x="29" y="98" width="86" height="31">
<path d="M114.383 123.782C115.827 117.541 97.9593 108.076 74.4743 102.643C50.9893 97.2099 30.7803 97.8654 29.3363 104.107C27.8923 110.349 45.76 119.814 69.245 125.247C92.73 130.68 112.939 130.024 114.383 123.782Z" fill="#7488C3"/>
</mask>
<g mask="url(#mask0)">
<path d="M53.7949 112.615C59.732 112.615 64.5449 107.802 64.5449 101.865C64.5449 95.9282 59.732 91.1152 53.7949 91.1152C47.8579 91.1152 43.0449 95.9282 43.0449 101.865C43.0449 107.802 47.8579 112.615 53.7949 112.615Z" fill="#131D44"/>
</g>
<path d="M38.5851 66.5552L42.1251 60.0952L45.6601 66.5552L52.1301 70.0852L45.6601 73.6152L42.1251 80.0702L38.5851 73.6152L32.1201 70.0852L38.5851 66.5552Z" fill="white"/>
<path d="M111.27 37.1301L113.39 33.2651L115.505 37.1301L119.375 39.2451L115.505 41.3551L113.39 45.2201L111.27 41.3551L107.4 39.2451L111.27 37.1301Z" fill="#131D44"/>
</g>
<defs>
<clipPath id="clip0">
<rect width="160" height="160" fill="white"/>
</clipPath>
</defs>
</svg>
